<svg width="34" height="33" viewBox="0 0 34 33" fill="none" xmlns="http://www.w3.org/2000/svg">
<g filter="url(#filter0_d_89_220)">
<path opacity="0.5" d="M19.5501 8.90246C18.6571 6.39658 16.2887 4.47939 13.7184 3.31349C13.0085 2.9915 12.1814 3.29021 11.8279 3.98965C10.5941 6.43096 9.88514 9.2913 10.8682 12.05C11.8075 14.6863 14.5992 16.4761 16.7147 17.4167C17.3746 17.7101 18.143 17.4703 18.4887 16.832C19.7163 14.5647 20.4081 11.3103 19.5501 8.90246Z" fill="#0E7726"/>
<path opacity="0.8" d="M24.9688 15.8022C26.985 14.0833 27.9392 11.1754 28.125 8.33886C28.1763 7.55549 27.6099 6.87795 26.8367 6.78804C24.1379 6.4742 21.2331 6.80281 19.0134 8.69514C16.8923 10.5035 16.2042 13.767 16.0689 16.0949C16.0267 16.8211 16.5178 17.4637 17.2315 17.5675C19.7665 17.9362 23.0314 17.4539 24.9688 15.8022Z" fill="#0E7726"/>
<path fill-rule="evenodd" clip-rule="evenodd" d="M19.3565 8.41863C18.8734 7.33292 18.112 6.36702 17.1861 5.53548C17.9271 4.89897 18.7506 4.35474 19.5996 3.89203C20.2831 3.51952 21.1365 3.74639 21.5464 4.41592C22.0286 5.20355 22.4489 6.04413 22.7742 6.90815C21.5589 7.15763 20.3921 7.63262 19.3565 8.41863ZM16.9732 17.5037C16.9009 17.4868 16.8291 17.464 16.7583 17.4352C16.9258 17.5179 17.1076 17.5663 17.2929 17.5762C17.2723 17.5733 17.2517 17.5704 17.2312 17.5674C17.1415 17.5544 17.0553 17.5328 16.9732 17.5037Z" fill="#0E7726"/>
<path opacity="0.8" d="M16.3567 19.4604C14.5415 23.784 14.83 28.4784 21.4024 28.8435" stroke="#0E7726" stroke-width="2.8" stroke-linecap="round"/>
<path opacity="0.4" d="M22.7247 24.5907C23.799 23.6827 24.2719 22.1071 24.3201 20.616C24.3277 20.3805 24.1574 20.1787 23.9242 20.1446C22.4993 19.9362 20.9242 20.0562 19.7389 21.0581C18.5993 22.0212 18.2847 23.8149 18.2521 24.977C18.246 25.1952 18.3937 25.3867 18.608 25.4282C19.9058 25.6796 21.6916 25.4638 22.7247 24.5907Z" fill="#0E7726"/>
<path opacity="0.8" d="M8.96823 24.5907C7.89389 23.6827 7.42098 22.1071 7.3728 20.616C7.36519 20.3805 7.53552 20.1787 7.76868 20.1446C9.19356 19.9362 10.7687 20.0562 11.954 21.0581C13.0936 22.0212 13.4082 23.8149 13.4408 24.977C13.4469 25.1952 13.2992 25.3867 13.0849 25.4282C11.7871 25.6796 10.0012 25.4638 8.96823 24.5907Z" fill="#0E7726"/>
<path d="M24.5846 31.4348C24.5846 31.7293 24.8234 31.9681 25.1179 31.9681H26.0985C28.5284 31.9681 29.7433 31.9681 30.668 31.4877C31.4473 31.0829 32.0827 30.4475 32.4875 29.6683C32.9679 28.7435 32.9679 27.5286 32.9679 25.0988V24.1182C32.9679 23.8236 32.7291 23.5849 32.4345 23.5849C32.14 23.5849 31.9012 23.8236 31.9012 24.1182V25.0988C31.9012 26.3316 31.9003 27.191 31.8448 27.8596C31.7903 28.5155 31.6888 28.8918 31.5409 29.1766C31.2373 29.761 30.7608 30.2376 30.1763 30.5412C29.8916 30.6891 29.5153 30.7906 28.8594 30.8451C28.1907 30.9006 27.3314 30.9014 26.0985 30.9014H25.1179C24.8234 30.9014 24.5846 31.1402 24.5846 31.4348Z" fill="#85B290"/>
<path d="M24.5846 0.565316C24.5846 0.859868 24.8234 1.09865 25.1179 1.09865H26.0985C27.3314 1.09865 28.1907 1.09951 28.8594 1.15504C29.5153 1.20951 29.8916 1.31101 30.1763 1.45893C30.7608 1.76253 31.2373 2.23907 31.5409 2.82353C31.6888 3.10828 31.7903 3.48455 31.8448 4.14045C31.9003 4.80911 31.9012 5.6685 31.9012 6.90132V7.88186C31.9012 8.17641 32.14 8.41519 32.4345 8.41519C32.7291 8.41519 32.9679 8.17641 32.9679 7.88186V6.90132C32.9679 4.47149 32.9679 3.25658 32.4875 2.33183C32.0827 1.55255 31.4473 0.917154 30.668 0.512352C29.7433 0.0319824 28.5284 0.0319824 26.0985 0.0319824H25.1179C24.8234 0.0319824 24.5846 0.270764 24.5846 0.565316Z" fill="#85B290"/>
<path d="M8.88161 0.0319824C9.17616 0.0319824 9.41494 0.270764 9.41494 0.565316C9.41494 0.859868 9.17616 1.09865 8.88161 1.09865H7.90107C6.66825 1.09865 5.80887 1.09951 5.1402 1.15504C4.4843 1.20951 4.10803 1.31101 3.82329 1.45893C3.23883 1.76253 2.76228 2.23907 2.45868 2.82353C2.31077 3.10828 2.20926 3.48455 2.15479 4.14045C2.09926 4.80911 2.09841 5.6685 2.09841 6.90132V7.88186C2.09841 8.17641 1.85962 8.41519 1.56507 8.41519C1.27052 8.41519 1.03174 8.17641 1.03174 7.88186V6.90132C1.03174 4.47149 1.03174 3.25658 1.51211 2.33183C1.91691 1.55255 2.5523 0.917154 3.33158 0.512352C4.25633 0.0319824 5.47124 0.0319824 7.90107 0.0319824H8.88161Z" fill="#85B290"/>
<path d="M8.88161 30.9014C9.17616 30.9014 9.41495 31.1402 9.41495 31.4348C9.41495 31.7293 9.17616 31.9681 8.88161 31.9681H7.90107C5.47124 31.9681 4.25633 31.9681 3.33158 31.4877C2.5523 31.0829 1.91691 30.4475 1.51211 29.6683C1.03174 28.7435 1.03174 27.5286 1.03174 25.0988V24.1182C1.03174 23.8236 1.27052 23.5849 1.56507 23.5849C1.85962 23.5849 2.09841 23.8236 2.09841 24.1182V25.0988C2.09841 26.3316 2.09926 27.191 2.15479 27.8596C2.20926 28.5155 2.31077 28.8918 2.45868 29.1766C2.76228 29.761 3.23883 30.2376 3.82329 30.5412C4.10803 30.6891 4.4843 30.7906 5.1402 30.8451C5.80887 30.9006 6.66825 30.9014 7.90107 30.9014H8.88161Z" fill="#85B290"/>
</g>
<defs>
<filter id="filter0_d_89_220" x="0.564072" y="0" width="32.8719" height="32.8719" filterUnits="userSpaceOnUse" color-interpolation-filters="sRGB">
<feFlood flood-opacity="0" result="BackgroundImageFix"/>
<feColorMatrix in="SourceAlpha" type="matrix" values="0 0 0 0 0 0 0 0 0 0 0 0 0 0 0 0 0 0 127 0" result="hardAlpha"/>
<feOffset dy="0.435928"/>
<feGaussianBlur stdDeviation="0.217964"/>
<feComposite in2="hardAlpha" operator="out"/>
<feColorMatrix type="matrix" values="0 0 0 0 0 0 0 0 0 0 0 0 0 0 0 0 0 0 0.11 0"/>
<feBlend mode="normal" in2="BackgroundImageFix" result="effect1_dropShadow_89_220"/>
<feBlend mode="normal" in="SourceGraphic" in2="effect1_dropShadow_89_220" result="shape"/>
</filter>
</defs>
</svg>
